# Blender v2.76 (sub 0) OBJ File: 'signs_dir_left.blend'
# www.blender.org
mtllib signs_dir_left.mtl
o Plane
v 0.500000 -0.218750 0.437500
v 0.500000 0.218750 0.437500
v -0.250000 -0.218750 0.437500
v -0.250000 0.218750 0.437500
v -0.437500 -0.000000 0.437500
v 0.500000 -0.218750 0.500000
v 0.500000 0.218750 0.500000
v -0.250000 -0.218750 0.500000
v -0.250000 0.218750 0.500000
v -0.437500 -0.000000 0.500000
vt 0.062500 0.500000
vt 0.062500 0.937500
vt 0.812500 0.937500
vt 1.000000 0.718750
vt 0.812500 0.500000
vt 0.062500 0.437500
vt 0.812500 0.437500
vt 1.000000 0.218750
vt 0.812500 0.000000
vt 0.062500 0.000000
vt 1.000000 0.312500
vt 0.937500 0.312500
vt 0.937500 0.625000
vt 1.000000 0.625000
vt 0.062500 1.000000
vt 0.812500 1.000000
vt 0.000000 0.312500
vt 0.062500 0.312500
vt 0.000000 0.000000
vt 0.000000 0.500000
vt 0.000000 0.937500
vn -0.000000 0.000000 -1.000000
vn 0.000000 -0.000000 1.000000
vn -0.759300 -0.650800 -0.000000
vn 0.000000 -1.000000 -0.000000
vn -0.000000 1.000000 0.000000
vn -0.759300 0.650800 0.000000
vn 1.000000 0.000000 0.000000
usemtl None
s off
f 2/1/1 1/2/1 3/3/1 5/4/1 4/5/1
f 7/6/2 9/7/2 10/8/2 8/9/2 6/10/2
f 3/11/3 8/12/3 10/13/3 5/14/3
f 1/2/4 6/15/4 8/16/4 3/3/4
f 4/5/5 9/7/5 7/6/5 2/1/5
f 5/17/6 10/18/6 9/10/6 4/19/6
f 2/1/7 7/20/7 6/21/7 1/2/7
