<?xml version="1.0" encoding="UTF-8" standalone="no"?>
<!-- Created with Inkscape (http://www.inkscape.org/) -->

<svg
   width="32"
   height="32"
   viewBox="0 0 8.4666665 8.4666666"
   version="1.1"
   id="svg5"
   inkscape:version="1.2.2 (b0a8486541, 2022-12-01)"
   sodipodi:docname="ontime_clocks_large_clock_inventory.svg"
   inkscape:export-filename="../textures/ontime_clocks_5x5_clock_inventory.png"
   inkscape:export-xdpi="96"
   inkscape:export-ydpi="96"
   xmlns:inkscape="http://www.inkscape.org/namespaces/inkscape"
   xmlns:sodipodi="http://sodipodi.sourceforge.net/DTD/sodipodi-0.dtd"
   xmlns="http://www.w3.org/2000/svg"
   xmlns:svg="http://www.w3.org/2000/svg"
   xmlns:rdf="http://www.w3.org/1999/02/22-rdf-syntax-ns#"
   xmlns:cc="http://creativecommons.org/ns#">
  <sodipodi:namedview
     id="namedview7"
     pagecolor="#cccccc"
     bordercolor="#666666"
     borderopacity="1.0"
     inkscape:showpageshadow="2"
     inkscape:pageopacity="0"
     inkscape:pagecheckerboard="true"
     inkscape:deskcolor="#d1d1d1"
     inkscape:document-units="px"
     showgrid="true"
     inkscape:zoom="7.6898428"
     inkscape:cx="66.061168"
     inkscape:cy="-37.321959"
     inkscape:window-width="2514"
     inkscape:window-height="1371"
     inkscape:window-x="0"
     inkscape:window-y="0"
     inkscape:window-maximized="1"
     inkscape:current-layer="layer1"
     shape-rendering="crispEdges">
    <inkscape:grid
       type="xygrid"
       id="grid132"
       empspacing="8"
       empcolor="#9f00e5"
       empopacity="0.30196078"
       originx="0"
       originy="0" />
  </sodipodi:namedview>
  <defs
     id="defs2" />
  <g
     inkscape:groupmode="layer"
     id="layer3"
     inkscape:label="clock"
     style="display:inline">
    <path
       id="rect2410-3-1-2-3-9-4-7-8-6"
       style="display:inline;opacity:1;fill:#ffffff;fill-rule:evenodd;stroke-width:0.0273861;stroke-linecap:round;stroke-linejoin:round;stroke-opacity:0.5;stop-color:#000000"
       d="M 3.96875,1.5875 H 4.2333333 V 1.8520833 H 3.96875 Z M 3.7041667,1.8520833 H 4.2333333 V 2.1166666 H 3.7041667 Z M 3.4395833,2.1166666 H 3.9687499 V 2.3812499 H 3.4395833 Z M 3.175,2.3812499 H 3.7041666 V 2.6458332 H 3.175 Z M 2.9104166,2.6458333 H 3.4395832 V 2.9104166 H 2.9104166 Z M 2.6458333,2.9104166 H 3.1749999 V 3.1749999 H 2.6458333 Z M 2.2489583,3.7041667 H 2.5135417 V 3.96875 H 2.2489583 Z M 1.984375,3.4395833 H 2.6458334 V 3.7041666 H 1.984375 Z M 1.7197917,3.175 H 2.9104166 V 3.4395833 H 1.7197917 Z M 1.4552083,2.9104166 H 2.38125 V 3.1749999 H 1.4552083 Z M 1.190625,2.6458333 H 2.1166667 V 2.9104166 H 1.190625 Z M 0.9260416,2.3812499 H 1.8520833 V 2.6458332 H 0.9260416 Z M 0.79374999,2.1166666 H 1.5875 V 2.3812499 H 0.79374999 Z M 0.92604166,1.5875 H 1.0583333 V 1.8520833 H 0.92604166 Z M 0.79374999,1.8520833 H 1.3229166 V 2.1166666 H 0.79374999 Z"
       inkscape:label="clock"
       transform="matrix(2,0,0,1,-0.52916664,0.52916667)" />
  </g>
  <g
     inkscape:groupmode="layer"
     id="layer1"
     inkscape:label="5x5"
     style="display:none;fill:#ffffff">
    <path
       id="rect1383"
       style="display:inline;fill:#808080;fill-opacity:1;fill-rule:evenodd;stroke-width:0.0499999;stroke-linecap:round;stroke-linejoin:round;stroke-opacity:0.5;stop-color:#000000"
       d="m 1.0583333,6.0854167 v 0.79375 h 0.2645834 0.79375 V 6.6145833 h -0.79375 V 6.35 h 0.79375 V 6.0854167 h -0.79375 z m 1.0583334,0.79375 V 7.14375 H 2.38125 V 6.8791667 Z m 0,0.2645833 H 1.0583333 v 0.2645833 h 1.0583334 z m 1.5875,-1.0583333 v 0.79375 H 3.96875 4.7625 V 6.6145833 H 3.96875 V 6.35 H 4.7625 V 6.0854167 H 3.96875 Z M 4.7625,6.8791667 V 7.14375 H 5.0270833 V 6.8791667 Z m 0,0.2645833 H 3.7041667 V 7.4083333 H 4.7625 Z M 2.6458333,6.6145833 V 6.8791667 H 2.9104167 V 6.6145833 Z M 2.9104167,6.8791667 V 7.14375 H 3.175 V 6.8791667 Z m 0.2645833,0 H 3.4395833 V 6.6145833 H 3.175 Z m 0,0.2645833 V 7.4083333 H 3.4395833 V 7.14375 Z m -0.2645833,0 H 2.6458333 v 0.2645833 h 0.2645834 z"
       inkscape:label="5x5" />
  </g>
  <g
     inkscape:groupmode="layer"
     id="layer2"
     inkscape:label="3x3"
     style="display:none">
    <path
       id="rect1383-3"
       style="display:inline;fill:#808080;fill-opacity:1;fill-rule:evenodd;stroke-width:0.0499999;stroke-linecap:round;stroke-linejoin:round;stroke-opacity:0.5;stop-color:#000000"
       d="M 1.0583333,6.0854167 V 6.35 H 2.1166667 V 6.0854167 Z M 2.1166667,6.35 V 6.6145833 H 2.38125 V 6.35 Z m 0,0.2645833 H 1.3229166 v 0.2645834 h 0.7937501 z m 0,0.2645834 V 7.14375 H 2.38125 V 6.8791667 Z m 0,0.2645833 H 1.0583333 v 0.2645833 h 1.0583334 z m 1.5875,-1.0583333 V 6.35 H 4.7624999 V 6.0854167 Z M 4.7624999,6.35 V 6.6145833 H 5.0270833 V 6.35 Z m 0,0.2645833 H 3.96875 v 0.2645834 h 0.7937499 z m 0,0.2645834 V 7.14375 H 5.0270833 V 6.8791667 Z m 0,0.2645833 H 3.7041667 V 7.4083333 H 4.7624999 Z M 2.6458334,6.6145833 V 6.8791667 H 2.9104167 V 6.6145833 Z M 2.9104167,6.8791667 V 7.14375 H 3.175 V 6.8791667 Z m 0.2645833,0 H 3.4395834 V 6.6145833 H 3.175 Z m 0,0.2645833 V 7.4083333 H 3.4395834 V 7.14375 Z m -0.2645833,0 H 2.6458334 v 0.2645833 h 0.2645833 z"
       inkscape:label="3x3" />
  </g>
  <metadata
     id="metadata209">
    <rdf:RDF>
      <cc:Work
         rdf:about="">
        <cc:license
           rdf:resource="http://creativecommons.org/licenses/by-sa/4.0/" />
      </cc:Work>
      <cc:License
         rdf:about="http://creativecommons.org/licenses/by-sa/4.0/">
        <cc:permits
           rdf:resource="http://creativecommons.org/ns#Reproduction" />
        <cc:permits
           rdf:resource="http://creativecommons.org/ns#Distribution" />
        <cc:requires
           rdf:resource="http://creativecommons.org/ns#Notice" />
        <cc:requires
           rdf:resource="http://creativecommons.org/ns#Attribution" />
        <cc:permits
           rdf:resource="http://creativecommons.org/ns#DerivativeWorks" />
        <cc:requires
           rdf:resource="http://creativecommons.org/ns#ShareAlike" />
      </cc:License>
    </rdf:RDF>
  </metadata>
</svg>
